<svg width="512" height="512" viewBox="0 0 512 512" fill="none" xmlns="http://www.w3.org/2000/svg">
<path d="M233.266 40H40.5101V40.2094H40.034C40.034 40.2094 40.8842 157.527 89.0391 245.381C100.664 227.01 114.941 210.038 131.515 194.888C119.246 162.03 111.426 128.014 108.219 93.5438H108.9V93.2746H236.701C342.125 93.2746 395.381 148.494 395.381 255.88C395.381 363.267 342.261 418.516 236.701 418.516H108.9V415.794C117.266 351.422 139.098 275.204 176.371 247.953C197.422 232.518 220.853 225.31 239.557 225.31C290.229 225.31 310.973 253.128 310.973 253.128C310.973 253.128 293.46 282.503 244.25 281.934C198.034 281.426 181.88 259.201 181.88 259.201C177.6 263.389 173.689 267.859 170.182 272.572C170.182 272.572 162.02 284.866 159.707 289.173C156.714 294.707 152.634 305.535 152.634 305.535C245.679 359.588 299.853 326.744 318.591 319.535C351.749 306.762 374.636 280.977 374.194 254.145C373.582 219.656 342.567 200.602 316.823 188.337C259.656 160.907 181.064 171.855 142.431 201.738C45.6113 276.52 40 472 40 472H233.3C393.34 472 472 390.697 472 255.97C472 121.243 393.306 40 233.266 40Z" fill="#F6F2E6"/>
</svg>
