<svg width="512" height="512" viewBox="0 0 512 512" fill="none" xmlns="http://www.w3.org/2000/svg">
<g clip-path="url(#clip0_411_2)">
<path d="M229.056 0H0.604588V0.248191H0.0402833C0.0402833 0.248191 1.04793 139.292 58.1204 243.414C71.8977 221.641 88.8185 201.527 108.462 183.571C93.9207 144.628 84.6536 104.312 80.8527 63.4593H81.6588V63.1403H233.127C358.074 63.1403 421.192 128.585 421.192 255.858C421.192 383.131 358.235 448.612 233.127 448.612H81.6588V445.385C91.574 369.092 117.45 278.76 161.625 246.463C186.574 228.17 214.344 219.626 236.512 219.626C296.567 219.626 321.154 252.596 321.154 252.596C321.154 252.596 300.396 287.41 242.075 286.737C187.299 286.134 168.154 259.793 168.154 259.793C163.081 264.758 158.446 270.055 154.289 275.64C154.289 275.64 144.616 290.211 141.875 295.316C138.328 301.875 133.492 314.709 133.492 314.709C243.767 378.771 307.974 339.844 330.182 331.3C369.48 316.162 396.606 285.603 396.082 253.802C395.356 212.926 358.598 190.343 328.086 175.807C260.333 143.298 167.187 156.273 121.4 191.69C6.65041 280.32 0 512 0 512H229.096C418.774 512 512 415.641 512 255.964C512 96.288 418.733 0 229.056 0Z" fill="#F6F2E6"/>
</g>
<defs>
<clipPath id="clip0_411_2">
<rect width="512" height="512" fill="white"/>
</clipPath>
</defs>
</svg>
