<svg width="512" height="512" viewBox="0 0 512 512" fill="none" xmlns="http://www.w3.org/2000/svg">
<path d="M310.973 253.128C313.378 251.335 313.377 251.333 313.376 251.332L313.373 251.328L313.366 251.319L313.347 251.293C313.331 251.272 313.31 251.244 313.284 251.211C313.231 251.143 313.158 251.05 313.063 250.933C312.874 250.698 312.601 250.368 312.24 249.956C311.518 249.133 310.448 247.98 309.01 246.61C306.135 243.869 301.786 240.254 295.818 236.651C283.86 229.432 265.474 222.31 239.557 222.31C220.152 222.31 196.111 229.761 174.6 245.532C155.225 259.697 140.195 286.267 128.978 316.922C117.719 347.69 110.128 383.065 105.925 415.407L105.9 415.6V415.794V418.516V421.516H108.9H236.701C289.978 421.516 330.551 407.567 357.777 379.559C384.988 351.567 398.381 310.028 398.381 255.88C398.381 201.731 384.953 160.2 357.725 132.215C330.483 104.216 289.911 90.2746 236.701 90.2746H108.9H105.9V90.5438H104.927L105.232 93.8217C108.403 127.897 116.045 161.528 128.003 194.044C113.156 207.826 100.163 223.074 89.283 239.486C67.0124 197.007 55.4404 148.184 49.4432 109.392C46.3429 89.3371 44.74 72.0145 43.9125 59.7117C43.4988 53.5612 43.279 48.6679 43.1628 45.3179C43.1353 44.528 43.1137 43.8239 43.0966 43.2094H43.5101V43H233.266C312.811 43 371.654 63.1883 410.598 99.6523C449.512 136.088 469 189.191 469 255.97C469 322.75 449.52 375.867 410.614 412.318C371.678 448.797 312.844 469 233.3 469H43.1263C43.1918 467.634 43.2876 465.834 43.4244 463.641C43.7646 458.187 44.3587 450.301 45.3733 440.6C47.403 421.193 51.1129 394.548 57.8305 365.59C71.307 307.497 96.7254 240.831 144.265 204.113L144.267 204.111C163.013 189.611 191.727 179.538 222.964 176.532C254.169 173.528 287.538 177.613 315.525 191.042L315.533 191.046C328.327 197.141 342.162 204.804 352.855 215.071C363.492 225.284 370.906 237.955 371.194 254.199C371.605 279.246 350.073 304.192 317.514 316.735C315.735 317.419 313.689 318.306 311.369 319.311C301.032 323.791 285.241 330.634 263.222 332.519C236.81 334.78 201.347 329.852 156.359 304.218C156.756 303.207 157.259 301.945 157.824 300.568C159.216 297.173 160.933 293.214 162.346 290.6L162.35 290.592C163.438 288.566 165.985 284.524 168.333 280.883C169.492 279.086 170.579 277.422 171.378 276.207C171.777 275.599 172.103 275.105 172.329 274.762C172.442 274.591 172.531 274.458 172.59 274.367L172.637 274.298C175.419 270.565 178.464 266.986 181.754 263.582C182.143 263.978 182.583 264.41 183.077 264.872C185.469 267.11 189.118 270.046 194.243 272.98C204.513 278.86 220.608 284.674 244.216 284.934C269.467 285.226 286.752 277.823 297.77 270.213C303.264 266.419 307.171 262.593 309.722 259.689C310.998 258.236 311.935 257.013 312.563 256.137C312.877 255.699 313.114 255.348 313.277 255.097C313.359 254.972 313.422 254.872 313.467 254.8C313.49 254.763 313.508 254.734 313.522 254.711L313.539 254.683L313.546 254.672L313.548 254.668C313.549 254.666 313.55 254.665 310.973 253.128ZM310.973 253.128L313.378 251.335L314.577 252.942L313.55 254.665L310.973 253.128Z" fill="#F6F2E6" stroke="#F25B3D" stroke-width="6"/>
</svg>
